<?xml version="1.0" encoding="UTF-8" standalone="no"?><svg xmlns="http://www.w3.org/2000/svg" width="198" height="144" xml:space="preserve"><path d="M 0,722 L 0,722 L 0,722 z " style="fill:black;fill-rule:evenodd;stroke:none" /><path d="M 98,93 L 169,93 C 169,54 137,22 98,22 C 59,22 27,54 27,93 L 98,93 z " style="fill:none;stroke:black;stroke-width:1.4;stroke-miterlimit:4;stroke-dasharray:none" /><path d="M 98,107 L 98,15" style="fill:none;stroke:black;stroke-width:0.6;stroke-miterlimit:4;stroke-dasharray:3.6;stroke-dashoffset:0" /><path d="M 98,97 L 98,96 C 98,99 101,102 104,102 L 128,102 C 131,102 133,105 133,108 L 133,107 M 133,107 L 133,108 C 133,105 136,102 139,102 L 163,102 C 166,102 169,99 169,96 L 169,97" style="fill:none;stroke:black;stroke-width:0.8" /><text x="130" y="118" style="font-size:16px;font-style:italic;font-family:Computer Modern, Times New Roman">r</text></svg>