<?xml version="1.0" encoding="UTF-8" standalone="no"?>
<!-- Created with Inkscape (http://www.inkscape.org/) -->
<svg
   xmlns:svg="http://www.w3.org/2000/svg"
   xmlns="http://www.w3.org/2000/svg"
   version="1.0"
   width="687.33484"
   height="774.71515"
   id="svg2">
  
  <path
     d="M 112.38976,612.86879 C 117.42268,684.03929 145.3473,739.95039 194.45226,762.65012 C 267.62368,796.47462 366.45929,746.69229 442.13976,647.46259"
     style="fill:none;fill-opacity:1;stroke:#eb2d2e;stroke-width:3;stroke-miterlimit:4;stroke-dasharray:none;stroke-dashoffset:0;stroke-opacity:1"
     id="path12382" />
  <path
     d="M 647.99362,471.82672 C 647.99362,576.09544 503.2711,660.62194 324.74681,660.62194 C 146.22252,660.62194 1.4999905,576.09544 1.4999905,471.82672 C 1.4999905,367.558 146.22252,283.0315 324.7468,283.0315 C 503.2711,283.0315 647.99362,367.558 647.99362,471.82672 L 647.99362,471.82672 z "
     style="fill:none;fill-opacity:1;stroke:#008dd1;stroke-width:3;stroke-miterlimit:4;stroke-dasharray:none;stroke-dashoffset:0;stroke-opacity:1"
     id="path2323" />
  <g
     id="g3490">
    <path
       d="M 642.0625,465.25 C 642.0625,465.25 553.73976,466.65626 323.5,466.65625 L 323.5,469.65625 C 553.75217,469.65626 642.09375,468.25 642.09375,468.25 L 642.0625,465.25 z "
       style="fill:#008dd1;fill-opacity:1;fill-rule:evenodd;stroke:none;stroke-width:3;stroke-linecap:butt;stroke-linejoin:miter;stroke-miterlimit:4;stroke-dasharray:none;stroke-opacity:1"
       id="path14453" />
    <path
       d="M 612.07665,467.22142 L 600.27228,479.41392 L 642.07273,466.73627 L 599.88416,455.41706 L 612.07665,467.22142 z "
       style="fill:#008dd1;fill-rule:evenodd;stroke:#008dd1;stroke-width:2.4pt;marker-start:none"
       id="path3496" />
  </g>
  <path
     d="M 441.88977,647.05619 C 464.05281,617.99833 484.21154,584.71263 501.17102,548.02503 C 535.57287,473.60493 550.7635,398.14183 547.98352,334.05633 C 548.07724,334.10803 548.17115,334.16073 548.26477,334.21253 C 544.93717,258.95733 516.77012,199.41323 465.70227,175.80631 C 450.45964,168.76015 434.13759,165.34335 417.10852,165.24381 C 415.97325,165.23717 414.81225,165.25237 413.67102,165.27506 C 349.15716,166.55776 275.50616,214.68459 216.35851,293.15003 C 216.11903,293.20043 215.87898,293.25563 215.63976,293.30633"
     style="fill:#ffffff;fill-opacity:1;stroke:#eb2d2e;stroke-width:3;stroke-miterlimit:4;stroke-dasharray:none;stroke-dashoffset:0;stroke-opacity:1"
     id="path11396" />
  <g
     id="g3506">
    <path
       d="M 215.71875,292.90625 L 213.1875,294.53125 C 351.70402,509.56682 420.96462,617.08486 455.59375,670.84375 C 472.90832,697.7232 481.57761,711.18639 485.90625,717.90625 C 488.07057,721.26618 489.14642,722.94127 489.6875,723.78125 C 489.95804,724.20124 490.08861,724.395 490.15625,724.5 C 490.19007,724.5525 490.2103,724.58063 490.21875,724.59375 C 490.22298,724.60031 490.21769,724.62336 490.21875,724.625 L 492.75,723 C 492.75,723 492.7518,722.97739 215.71875,292.90625 z "
       style="fill:#00aa4f;fill-opacity:1;fill-rule:evenodd;stroke:none;stroke-width:3;stroke-linecap:butt;stroke-linejoin:miter;stroke-miterlimit:4;stroke-dasharray:none;stroke-opacity:1"
       id="path8199" />
    <path
       d="M 475.24243,698.57848 L 458.6559,694.98867 L 491.48834,723.79892 L 478.83225,681.99194 L 475.24243,698.57848 z "
       style="fill:#00aa4f;fill-rule:evenodd;stroke:#00aa4f;stroke-width:2.4pt;marker-start:none"
       id="path3512" />
  </g>
  <text
     x="494.64572"
     y="765.84717"
     style="font-size:32px;font-style:normal;font-variant:normal;font-weight:normal;font-stretch:normal;text-align:start;line-height:100%;writing-mode:lr-tb;text-anchor:start;fill:#00aa4f;fill-opacity:1;stroke:none;stroke-width:1px;stroke-linecap:butt;stroke-linejoin:miter;stroke-opacity:1;font-family:Times New Roman"
     id="text13359"
     xml:space="preserve"><tspan
       x="494.64572"
       y="765.84717"
       style="font-size:48px;font-style:normal;font-variant:normal;font-weight:bold;font-stretch:normal;text-align:start;line-height:100%;writing-mode:lr-tb;text-anchor:start;fill:#00aa4f;fill-opacity:1;font-family:Times New Roman"
       id="tspan13361">N</tspan></text>
  <g
     id="g3474">
    <path
       d="M 324.59375,465.625 C 264.48967,553.50828 234.43227,597.43543 219.40625,619.40625 C 211.89324,630.39166 208.12825,635.87865 206.25,638.625 C 205.31087,639.99818 204.85978,640.68796 204.625,641.03125 C 204.50761,641.2029 204.4356,641.30084 204.40625,641.34375 C 204.39158,641.36521 204.37867,641.36964 204.375,641.375 L 206.84375,643.0625 C 206.84375,643.0625 206.85434,643.07906 327.0625,467.3125 L 324.59375,465.625 z "
       style="fill:#008dd1;fill-opacity:1;fill-rule:evenodd;stroke:none;stroke-width:3;stroke-linecap:butt;stroke-linejoin:miter;stroke-miterlimit:4;stroke-dasharray:none;stroke-opacity:1"
       id="path13365" />
    <path
       d="M 222.55123,617.46705 L 219.42031,600.7878 L 205.61581,642.22976 L 239.23047,614.33614 L 222.55123,617.46705 z "
       style="fill:#008dd1;fill-rule:evenodd;stroke:#008dd1;stroke-width:2.4pt;marker-start:none"
       id="path3480" />
  </g>
  <text
     x="156.52582"
     y="746.62305"
     transform="scale(1.0868608,0.920081)"
     style="font-size:48px;font-style:normal;font-variant:normal;font-weight:normal;font-stretch:normal;text-align:start;line-height:100%;writing-mode:lr-tb;text-anchor:start;fill:#008dd1;fill-opacity:1;stroke:#50b1df;stroke-width:1px;stroke-linecap:butt;stroke-linejoin:miter;stroke-opacity:1;font-family:Times New Roman"
     id="text14442"
     xml:space="preserve"><tspan
       x="156.52582"
       y="746.62305"
       style="font-size:48px;font-style:normal;font-variant:normal;font-weight:normal;font-stretch:normal;text-align:start;line-height:100%;writing-mode:lr-tb;text-anchor:start;fill:#008dd1;fill-opacity:1;stroke:#50b1df;stroke-width:1;stroke-opacity:1;font-family:Times New Roman"
       id="tspan14444">x</tspan></text>
  <text
     x="608.22498"
     y="511.67343"
     transform="scale(1.0868608,0.920081)"
     style="font-size:48px;font-style:normal;font-variant:normal;font-weight:normal;font-stretch:normal;text-align:start;line-height:100%;writing-mode:lr-tb;text-anchor:start;fill:#008dd1;fill-opacity:1;stroke:#50b1df;stroke-width:1px;stroke-linecap:butt;stroke-linejoin:miter;stroke-opacity:1;font-family:Times New Roman"
     id="text15495"
     xml:space="preserve"><tspan
       x="608.22498"
       y="511.67343"
       style="font-size:48px;font-style:normal;font-variant:normal;font-weight:normal;font-stretch:normal;text-align:start;line-height:100%;writing-mode:lr-tb;text-anchor:start;fill:#008dd1;fill-opacity:1;stroke:#50b1df;stroke-width:1;stroke-opacity:1;font-family:Times New Roman"
       id="tspan15497">y</tspan></text>
  <text
     x="286.65585"
     y="33.120461"
     transform="scale(1.0868608,0.920081)"
     style="font-size:48px;font-style:normal;font-variant:normal;font-weight:normal;font-stretch:normal;text-align:start;line-height:100%;writing-mode:lr-tb;text-anchor:start;fill:#008dd1;fill-opacity:1;stroke:#50b1df;stroke-width:1px;stroke-linecap:butt;stroke-linejoin:miter;stroke-opacity:1;font-family:Times New Roman"
     id="text15501"
     xml:space="preserve"><tspan
       x="286.65585"
       y="33.120461"
       style="font-size:48px;font-style:normal;font-variant:normal;font-weight:normal;font-stretch:normal;text-align:start;line-height:100%;writing-mode:lr-tb;text-anchor:start;fill:#008dd1;fill-opacity:1;stroke:#50b1df;stroke-width:1;stroke-opacity:1;font-family:Times New Roman"
       id="tspan15503">z</tspan></text>
  <g
     id="g3522">
    <path
       d="M 325.625,42.03125 L 322.1875,42.0625 C 322.1875,42.0625 323.59375,159.93442 323.59375,467.25 L 327.03125,467.25 C 327.03125,159.92397 325.625,42.03125 325.625,42.03125 z "
       style="fill:#008dd1;fill-opacity:1;fill-rule:evenodd;stroke:none;stroke-width:3.43442535;stroke-linecap:butt;stroke-linejoin:miter;stroke-miterlimit:4;stroke-dasharray:none;stroke-opacity:1"
       id="path15499" />
    <path
       d="M 324.31355,76.387334 L 338.21372,89.960621 L 323.90495,42.045511 L 310.74027,90.287504 L 324.31355,76.387334 z "
       style="fill:#008dd1;fill-rule:evenodd;stroke:#008dd1;stroke-width:2.74754028pt;marker-start:none"
       id="path3528" />
  </g>
  <text
     x="3.711575"
     y="256.73026"
     style="font-size:32px;font-style:normal;font-variant:normal;font-weight:normal;font-stretch:normal;text-align:start;line-height:100%;writing-mode:lr-tb;text-anchor:start;fill:#eb2d2e;fill-opacity:1;stroke:none;stroke-width:1px;stroke-linecap:butt;stroke-linejoin:miter;stroke-opacity:1;font-family:Times New Roman"
     id="text17562"
     xml:space="preserve"><tspan
       x="3.711575"
       y="256.73026"
       style="font-size:48px;font-style:normal;font-variant:normal;font-weight:bold;font-stretch:normal;text-align:start;line-height:100%;writing-mode:lr-tb;text-anchor:start;fill:#eb2d2e;fill-opacity:1;stroke:none;stroke-opacity:1;font-family:Times New Roman"
       id="tspan17564">Z</tspan></text>
  <g
     id="g3498">
    <path
       d="M 324.4375,463.21875 L 323.90625,466.1875 C 420.8809,483.36008 469.38134,491.9256 493.625,496.21875 C 505.74683,498.36532 511.81329,499.43211 514.84375,499.96875 C 516.35898,500.23707 517.12119,500.37042 517.5,500.4375 C 517.6894,500.47104 517.76515,500.49161 517.8125,500.5 C 517.83618,500.50419 517.86908,500.5302 517.875,500.53125 L 518.40625,497.5625 C 518.40625,497.5625 518.3868,497.56391 324.4375,463.21875 z "
       style="fill:#eb2d2e;fill-opacity:1;fill-rule:evenodd;stroke:none;stroke-width:3;stroke-linecap:butt;stroke-linejoin:miter;stroke-miterlimit:4;stroke-dasharray:none;stroke-opacity:1"
       id="path19564" />
    <path
       d="M 488.59136,493.80952 L 474.68275,503.53323 L 518.13176,499.04063 L 478.86764,479.90091 L 488.59136,493.80952 z "
       style="fill:#eb2d2e;fill-rule:evenodd;stroke:#eb2d2e;stroke-width:2.4pt;marker-start:none"
       id="path3504" />
  </g>
  <text
     x="528.99091"
     y="519.36993"
     style="font-size:32px;font-style:normal;font-variant:normal;font-weight:normal;font-stretch:normal;text-align:start;line-height:100%;writing-mode:lr-tb;text-anchor:start;fill:#eb2d2e;fill-opacity:1;stroke:none;stroke-width:1px;stroke-linecap:butt;stroke-linejoin:miter;stroke-opacity:1;font-family:Times New Roman"
     id="text20565"
     xml:space="preserve"><tspan
       x="528.99091"
       y="519.36993"
       style="font-size:48px;font-style:normal;font-variant:normal;font-weight:bold;font-stretch:normal;text-align:start;line-height:100%;writing-mode:lr-tb;text-anchor:start;fill:#eb2d2e;fill-opacity:1;font-family:Times New Roman"
       id="tspan20567">X</tspan></text>
  <g
     id="g3514">
    <path
       d="M 467.03125,178.28125 C 467.03125,178.28125 467.0354,178.27292 323.59375,465.15625 L 326.28125,466.5 C 398.00207,323.05834 433.85104,251.32917 451.78125,215.46875 C 460.74635,197.53854 465.22747,188.5763 467.46875,184.09375 C 468.58939,181.85247 469.15734,180.74782 469.4375,180.1875 C 469.57758,179.90734 469.65248,179.75754 469.6875,179.6875 C 469.70501,179.65248 469.71437,179.63375 469.71875,179.625 C 469.71875,179.625 467.03125,178.28125 467.03125,178.28125 z "
       style="fill:#eb2d2e;fill-opacity:1;fill-rule:evenodd;stroke:none;stroke-width:3;stroke-linecap:butt;stroke-linejoin:miter;stroke-miterlimit:4;stroke-dasharray:none;stroke-opacity:1"
       id="path20571" />
    <path
       d="M 454.96533,205.78137 L 460.3319,221.88106 L 468.38174,178.94855 L 438.86564,211.14793 L 454.96533,205.78137 z "
       style="fill:#eb2d2e;fill-rule:evenodd;stroke:#eb2d2e;stroke-width:2.4pt;marker-start:none"
       id="path3520" />
  </g>
  <g
     id="g3482">
    <path
       d="M 49.03125,261.59375 L 47.28125,264 C 47.28125,264 47.280686,264.00074 324.0625,466.03125 L 325.8125,463.625 C 187.42159,362.60975 118.22273,312.09756 83.625,286.84375 C 66.326137,274.21684 57.699716,267.90673 53.375,264.75 C 51.212642,263.17164 50.134339,262.36334 49.59375,261.96875 C 49.323455,261.77145 49.192574,261.67432 49.125,261.625 C 49.091213,261.60034 49.070947,261.59992 49.0625,261.59375 C 49.058277,261.59067 49.032306,261.59452 49.03125,261.59375 z "
       style="fill:#eb2d2e;fill-opacity:1;fill-rule:evenodd;stroke:none;stroke-width:3;stroke-linecap:butt;stroke-linejoin:miter;stroke-miterlimit:4;stroke-opacity:1"
       id="path16498" />
    <path
       d="M 72.389732,280.4784 L 89.157189,277.8607 L 48.15828,262.79121 L 75.007436,297.24586 L 72.389732,280.4784 z "
       style="fill:#eb2d2e;fill-rule:evenodd;stroke:#eb2d2e;stroke-width:2.4pt;marker-start:none"
       id="path3488" />
  </g>
  <text
     x="452.2193"
     y="163.79622"
     style="font-size:32px;font-style:normal;font-variant:normal;font-weight:normal;font-stretch:normal;text-align:start;line-height:100%;writing-mode:lr-tb;text-anchor:start;fill:#eb2d2e;fill-opacity:1;stroke:none;stroke-width:1px;stroke-linecap:butt;stroke-linejoin:miter;stroke-opacity:1;font-family:Times New Roman"
     id="text20573"
     xml:space="preserve"><tspan
       x="452.2193"
       y="163.79622"
       style="font-size:48px;font-style:normal;font-variant:normal;font-weight:bold;font-stretch:normal;text-align:start;line-height:100%;writing-mode:lr-tb;text-anchor:start;fill:#eb2d2e;fill-opacity:1;font-family:Times New Roman"
       id="tspan20575">Y</tspan></text>
  <g
     id="g3530">
    <path
       d="M 287.8125,525.6875 L 286.125,528.15625 C 310.28141,544.63833 341.5734,546.49673 367.5,532.96875 L 366.09375,530.3125 C 341.14333,543.33112 311.05937,541.549 287.8125,525.6875 z "
       style="fill:#000000;fill-opacity:1;stroke:none;stroke-width:3;stroke-miterlimit:4;stroke-dasharray:none;stroke-dashoffset:0;stroke-opacity:1"
       id="path20590" />
    <path
       d="M 349.52264,532.46241 L 370.30388,529.77637 L 356.2135,545.28559 C 357.02387,540.04677 354.30549,534.87606 349.52264,532.46241 z "
       style="font-size:12px;fill-rule:evenodd;stroke-width:0.625;stroke-linejoin:round"
       id="path3536" />
  </g>
  <text
     x="314.83856"
     y="569.87756"
     style="font-size:48px;font-style:normal;font-variant:normal;font-weight:normal;font-stretch:normal;text-align:start;line-height:125%;writing-mode:lr-tb;text-anchor:start;fill:#000000;fill-opacity:1;stroke:none;stroke-width:1px;stroke-linecap:butt;stroke-linejoin:miter;stroke-opacity:1;font-family:Times New Roman"
     id="text22598"
     xml:space="preserve"><tspan
       x="314.83856"
       y="569.87756"
       id="tspan22600">α</tspan></text>
  <g
     id="g3546">
    <path
       d="M 323.1875,385.5 C 300.33929,386.53639 279.04005,397.39826 264.78125,415.28125 L 267.125,417.15625 C 280.84531,399.94862 301.32717,389.49725 323.3125,388.5 L 323.1875,385.5 z "
       style="fill:#000000;fill-opacity:1;stroke:none;stroke-width:3;stroke-miterlimit:4;stroke-dasharray:none;stroke-dashoffset:0;stroke-opacity:1"
       id="path22602" />
    <path
       d="M 281.41737,408.46613 L 263.50223,419.33455 L 270.10837,399.44903 C 271.48805,404.56747 276.06687,408.19518 281.41737,408.46613 z "
       style="font-size:12px;fill-rule:evenodd;stroke-width:0.625;stroke-linejoin:round"
       id="path3552" />
  </g>
  <text
     x="271.40201"
     y="356.73535"
     style="font-size:48px;font-style:normal;font-variant:normal;font-weight:normal;font-stretch:normal;text-align:start;line-height:125%;writing-mode:lr-tb;text-anchor:start;fill:#000000;fill-opacity:1;stroke:none;stroke-width:1px;stroke-linecap:butt;stroke-linejoin:miter;stroke-opacity:1;font-family:Times New Roman"
     id="text22604"
     xml:space="preserve"><tspan
       x="271.40201"
       y="356.73535"
       id="tspan22606">β</tspan></text>
  <g
     id="g3538">
    <path
       d="M 443.84375,489.28125 C 437.1957,520.94947 418.01596,548.56598 390.65625,565.84375 L 392.25,568.375 C 420.29475,550.66463 439.96674,522.36739 446.78125,489.90625 L 443.84375,489.28125 z "
       style="fill:#000000;fill-opacity:1;stroke:none;stroke-width:3;stroke-miterlimit:4;stroke-dasharray:none;stroke-dashoffset:0;stroke-opacity:1"
       id="path22608" />
    <path
       d="M 434.98495,503.45349 L 446.10308,485.69224 L 449.1402,506.42508 C 445.60708,502.473 439.88627,501.29053 434.98495,503.45349 z "
       style="font-size:12px;fill-rule:evenodd;stroke-width:0.625;stroke-linejoin:round"
       id="path3544" />
  </g>
  <text
     x="431.0061"
     y="564.82678"
     style="font-size:48px;font-style:normal;font-variant:normal;font-weight:normal;font-stretch:normal;text-align:start;line-height:125%;writing-mode:lr-tb;text-anchor:start;fill:#000000;fill-opacity:1;stroke:none;stroke-width:1px;stroke-linecap:butt;stroke-linejoin:miter;stroke-opacity:1;font-family:Times New Roman"
     id="text22610"
     xml:space="preserve"><tspan
       x="431.0061"
       y="564.82678"
       id="tspan22612">γ</tspan></text>
</svg>
