<?xml version="1.0" encoding="UTF-8" standalone="no"?>
<!-- Created with Inkscape (http://www.inkscape.org/) -->
<svg
   xmlns:dc="http://purl.org/dc/elements/1.1/"
   xmlns:cc="http://creativecommons.org/ns#"
   xmlns:rdf="http://www.w3.org/1999/02/22-rdf-syntax-ns#"
   xmlns:svg="http://www.w3.org/2000/svg"
   xmlns="http://www.w3.org/2000/svg"
   xmlns:sodipodi="http://sodipodi.sourceforge.net/DTD/sodipodi-0.dtd"
   xmlns:inkscape="http://www.inkscape.org/namespaces/inkscape"
   width="210mm"
   height="297mm"
   id="svg3499"
   sodipodi:version="0.32"
   inkscape:version="0.46"
   sodipodi:docname="markers.svg"
   inkscape:output_extension="org.inkscape.output.svg.inkscape">
  <defs
     id="defs3">
    <inkscape:perspective
       sodipodi:type="inkscape:persp3d"
       inkscape:vp_x="0 : 526.18109 : 1"
       inkscape:vp_y="0 : 1000 : 0"
       inkscape:vp_z="744.09448 : 526.18109 : 1"
       inkscape:persp3d-origin="372.04724 : 350.78739 : 1"
       id="perspective3505" />
  </defs>
  <sodipodi:namedview
     inkscape:document-units="mm"
     id="base"
     pagecolor="#ffffff"
     bordercolor="#666666"
     borderopacity="1.0"
     inkscape:pageopacity="0.0"
     inkscape:pageshadow="2"
     inkscape:zoom="0.49497475"
     inkscape:cx="108.66486"
     inkscape:cy="557.74486"
     inkscape:current-layer="layer1"
     showgrid="false"
     inkscape:window-width="1024"
     inkscape:window-height="712"
     inkscape:window-x="-4"
     inkscape:window-y="-4" />
  <metadata
     id="metadata4">
    <rdf:RDF>
      <cc:Work
         rdf:about="">
        <dc:format>image/svg+xml</dc:format>
        <dc:type
           rdf:resource="http://purl.org/dc/dcmitype/StillImage" />
      </cc:Work>
    </rdf:RDF>
  </metadata>
  <g
     inkscape:label="Layer 1"
     inkscape:groupmode="layer"
     id="layer1">
    <g
       id="g4212"
       transform="translate(135.36044,0)">
      <path
         transform="translate(-125.25892,24.243661)"
         d="M 385.87827,155.34673 A 43.436558,54.548237 0 1 1 299.00515,155.34673 A 43.436558,54.548237 0 1 1 385.87827,155.34673 z"
         sodipodi:ry="54.548237"
         sodipodi:rx="43.436558"
         sodipodi:cy="155.34673"
         sodipodi:cx="342.44171"
         id="path3507"
         style="fill:#ffffff;fill-opacity:1;stroke:#000000;stroke-width:1;stroke-miterlimit:4;stroke-dasharray:none;stroke-opacity:1"
         sodipodi:type="arc" />
      <path
         id="path3509"
         d="M 214.15234,234.13862 C 214.15234,559.40774 214.15234,559.40774 214.15234,559.40774"
         style="fill:none;fill-rule:evenodd;stroke:#000000;stroke-width:1px;stroke-linecap:butt;stroke-linejoin:miter;stroke-opacity:1" />
      <g
         transform="translate(0,24.243661)"
         id="g3519">
        <path
           style="fill:none;fill-rule:evenodd;stroke:#000000;stroke-width:1px;stroke-linecap:butt;stroke-linejoin:miter;stroke-opacity:1"
           d="M 258.59905,250.30106 C 258.59905,250.30106 258.59905,250.30106 169.70563,250.30106 C 133.34014,333.13357 133.34014,333.13357 133.34014,333.13357 C 70.710678,314.95082 70.710678,314.95082 70.710678,314.95082"
           id="path3511" />
        <path
           sodipodi:type="arc"
           style="opacity:1;fill:#ffffff;fill-opacity:1;stroke:#000000;stroke-width:1;stroke-miterlimit:4;stroke-dasharray:none;stroke-opacity:1"
           id="path3513"
           sodipodi:cx="65.659912"
           sodipodi:cy="308.88992"
           sodipodi:rx="11.111678"
           sodipodi:ry="10.101525"
           d="M 76.77159,308.88992 A 11.111678,10.101525 0 1 1 54.548234,308.88992 A 11.111678,10.101525 0 1 1 76.77159,308.88992 z"
           transform="matrix(1.973725,0,0,1.2710975,-77.066682,-82.729142)" />
        <path
           style="fill:none;fill-rule:evenodd;stroke:#000000;stroke-width:1px;stroke-linecap:butt;stroke-linejoin:miter;stroke-opacity:1"
           d="M 168.69547,249.29091 C 168.69547,249.29091 168.69547,249.29091 257.58889,249.29091 C 293.95438,332.12342 293.95438,332.12342 293.95438,332.12342 C 356.58384,313.94067 356.58384,313.94067 356.58384,313.94067"
           id="path3515" />
        <path
           sodipodi:type="arc"
           style="opacity:1;fill:#ffffff;fill-opacity:1;stroke:#000000;stroke-width:1;stroke-miterlimit:4;stroke-dasharray:none;stroke-opacity:1"
           id="path3517"
           sodipodi:cx="65.659912"
           sodipodi:cy="308.88992"
           sodipodi:rx="11.111678"
           sodipodi:ry="10.101525"
           d="M 76.77159,308.88992 A 11.111678,10.101525 0 1 1 54.548234,308.88992 A 11.111678,10.101525 0 1 1 76.77159,308.88992 z"
           transform="matrix(1.973725,0,0,1.2710975,246.18214,-79.698692)" />
      </g>
      <g
         transform="translate(0,24.243661)"
         id="g3533">
        <path
           style="fill:none;fill-rule:evenodd;stroke:#000000;stroke-width:1px;stroke-linecap:butt;stroke-linejoin:miter;stroke-opacity:1"
           d="M 214.15234,535.16408 C 109.09647,753.35703 113.13709,751.33672 113.13709,751.33672"
           id="path3525" />
        <path
           sodipodi:type="arc"
           style="opacity:1;fill:#ffffff;fill-opacity:1;stroke:#000000;stroke-width:1;stroke-miterlimit:4;stroke-dasharray:none;stroke-opacity:1"
           id="path3529"
           sodipodi:cx="80.812202"
           sodipodi:cy="775.58038"
           sodipodi:rx="52.527931"
           sodipodi:ry="20.203051"
           d="M 133.34013,775.58038 A 52.527931,20.203051 0 1 1 28.284271,775.58038 A 52.527931,20.203051 0 1 1 133.34013,775.58038 z"
           transform="matrix(0.8284357,0,0,0.8539329,14.87464,104.19542)" />
      </g>
      <path
         id="path3539"
         d="M 215.1625,562.43819 C 320.21837,780.63114 316.17775,778.61083 316.17775,778.61083"
         style="fill:none;fill-rule:evenodd;stroke:#000000;stroke-width:1px;stroke-linecap:butt;stroke-linejoin:miter;stroke-opacity:1" />
      <path
         transform="matrix(-0.8284357,0,0,0.8539329,414.4402,131.46953)"
         d="M 133.34013,775.58038 A 52.527931,20.203051 0 1 1 28.284271,775.58038 A 52.527931,20.203051 0 1 1 133.34013,775.58038 z"
         sodipodi:ry="20.203051"
         sodipodi:rx="52.527931"
         sodipodi:cy="775.58038"
         sodipodi:cx="80.812202"
         id="path3541"
         style="fill:#ffffff;fill-opacity:1;stroke:#000000;stroke-width:1;stroke-miterlimit:4;stroke-dasharray:none;stroke-opacity:1"
         sodipodi:type="arc" />
      <path
         transform="translate(0,24.243661)"
         d="M 97.934036,314.95081 A 5,5 0 1 1 87.934036,314.95081 A 5,5 0 1 1 97.934036,314.95081 z"
         sodipodi:ry="5"
         sodipodi:rx="5"
         sodipodi:cy="314.95081"
         sodipodi:cx="92.934036"
         style="fill:#ff0000;fill-opacity:1;stroke:none"
         id="path4064"
         sodipodi:type="arc" />
      <path
         transform="translate(0,24.243661)"
         d="M 110.05586,329.09296 A 5,5 0 1 1 100.05586,329.09296 A 5,5 0 1 1 110.05586,329.09296 z"
         sodipodi:ry="5"
         sodipodi:rx="5"
         sodipodi:cy="329.09296"
         sodipodi:cx="105.05586"
         style="fill:#ff0000;fill-opacity:1;stroke:none"
         id="path4066"
         sodipodi:type="arc" />
      <path
         transform="translate(0,24.243661)"
         d="M 122.1777,323.03204 A 5,5 0 1 1 112.1777,323.03204 A 5,5 0 1 1 122.1777,323.03204 z"
         sodipodi:ry="5"
         sodipodi:rx="5"
         sodipodi:cy="323.03204"
         sodipodi:cx="117.1777"
         style="fill:#ff0000;fill-opacity:1;stroke:none"
         id="path4068"
         sodipodi:type="arc" />
      <path
         transform="translate(0,24.243661)"
         d="M 316.12698,323.03204 A 5,5 0 1 1 306.12698,323.03204 A 5,5 0 1 1 316.12698,323.03204 z"
         sodipodi:ry="5"
         sodipodi:rx="5"
         sodipodi:cy="323.03204"
         sodipodi:cx="311.12698"
         style="fill:#ff0000;fill-opacity:1;stroke:none"
         id="path4070"
         sodipodi:type="arc" />
      <path
         transform="translate(0,24.243661)"
         d="M 336.33002,329.09296 A 5,5 0 1 1 326.33002,329.09296 A 5,5 0 1 1 336.33002,329.09296 z"
         sodipodi:ry="5"
         sodipodi:rx="5"
         sodipodi:cy="329.09296"
         sodipodi:cx="331.33002"
         style="fill:#ff0000;fill-opacity:1;stroke:none"
         id="path4072"
         sodipodi:type="arc" />
      <path
         transform="translate(0,24.243661)"
         d="M 344.41125,312.93051 A 5,5 0 1 1 334.41125,312.93051 A 5,5 0 1 1 344.41125,312.93051 z"
         sodipodi:ry="5"
         sodipodi:rx="5"
         sodipodi:cy="312.93051"
         sodipodi:cx="339.41125"
         style="fill:#ff0000;fill-opacity:1;stroke:none"
         id="path4074"
         sodipodi:type="arc" />
      <path
         transform="translate(0,24.243661)"
         d="M 188.84776,264.44321 A 5,5 0 1 1 178.84776,264.44321 A 5,5 0 1 1 188.84776,264.44321 z"
         sodipodi:ry="5"
         sodipodi:rx="5"
         sodipodi:cy="264.44321"
         sodipodi:cx="183.84776"
         style="fill:#ff0000;fill-opacity:1;stroke:none"
         id="path4076"
         sodipodi:type="arc" />
      <path
         transform="translate(0,24.243661)"
         d="M 237.33508,270.50412 A 5,5 0 1 1 227.33508,270.50412 A 5,5 0 1 1 237.33508,270.50412 z"
         sodipodi:ry="5"
         sodipodi:rx="5"
         sodipodi:cy="270.50412"
         sodipodi:cx="232.33508"
         style="fill:#ff0000;fill-opacity:1;stroke:none"
         id="path4078"
         sodipodi:type="arc" />
      <path
         transform="translate(0,24.243661)"
         d="M 192.88837,294.74777 A 5,5 0 1 1 182.88837,294.74777 A 5,5 0 1 1 192.88837,294.74777 z"
         sodipodi:ry="5"
         sodipodi:rx="5"
         sodipodi:cy="294.74777"
         sodipodi:cx="187.88837"
         style="fill:#ff0000;fill-opacity:1;stroke:none"
         id="path4080"
         sodipodi:type="arc" />
      <path
         transform="translate(0,24.243661)"
         d="M 263.59906,286.66656 A 5,5 0 1 1 253.59906,286.66656 A 5,5 0 1 1 263.59906,286.66656 z"
         sodipodi:ry="5"
         sodipodi:rx="5"
         sodipodi:cy="286.66656"
         sodipodi:cx="258.59906"
         style="fill:#ff0000;fill-opacity:1;stroke:none"
         id="path4082"
         sodipodi:type="arc" />
      <path
         transform="translate(0,24.243661)"
         d="M 231.27417,290.70715 A 5,5 0 1 1 221.27417,290.70715 A 5,5 0 1 1 231.27417,290.70715 z"
         sodipodi:ry="5"
         sodipodi:rx="5"
         sodipodi:cy="290.70715"
         sodipodi:cx="226.27417"
         style="fill:#ff0000;fill-opacity:1;stroke:none"
         id="path4084"
         sodipodi:type="arc" />
    </g>
  </g>
</svg>
